<svg xmlns="http://www.w3.org/2000/svg" viewBox="0 0 24 24" fill="currentColor" class="size-6">
  <path d="M10.5 8.25a.75.75 0 0 1 .75.75v1.5a.75.75 0 0 1-1.5 0V9a.75.75 0 0 1 .75-.75ZM10.5 12a.75.75 0 0 1 .75.75v1.5a.75.75 0 0 1-1.5 0V12.75a.75.75 0 0 1 .75-.75ZM15 8.25a.75.75 0 0 1 .75.75v1.5a.75.75 0 0 1-1.5 0V9a.75.75 0 0 1 .75-.75ZM15 12a.75.75 0 0 1 .75.75v1.5a.75.75 0 0 1-1.5 0V12.75a.75.75 0 0 1 .75-.75ZM12 2.25c-5.385 0-9.75 4.365-9.75 9.75s4.365 9.75 9.75 9.75 9.75-4.365 9.75-9.75S17.385 2.25 12 2.25Zm0 18a8.25 8.25 0 1 0 0-16.5 8.25 8.25 0 0 0 0 16.5Z" />
</svg> 