<svg xmlns="http://www.w3.org/2000/svg" viewBox="0 0 24 24" fill="currentColor" class="size-6">
  <path d="M4.5 6.75a3.75 3.75 0 1 1 7.5 0v2.25c0 .088.024.173.07.252l2.36 4.14a.75.75 0 0 1-.228 1.054L9 18h2.25a.75.75 0 0 0 .75-.75v-.543l1.293-1.043c.27-.218.428-.535.428-.865V9a3.75 3.75 0 0 1 7.5 0v.75a.75.75 0 0 0 1.5 0V9A5.25 5.25 0 0 0 16.5 3.75h-2.25a.75.75 0 0 0-.75.75v1.5a.75.75 0 0 0 1.5 0V5.25A2.25 2.25 0 0 1 18.75 3a.75.75 0 0 0 .75-.75.75.75 0 0 0-.75-.75H4.5A.75.75 0 0 0 3.75 2.25a.75.75 0 0 0 .75.75h2.25A5.25 5.25 0 0 0 1.5 9v.75a.75.75 0 0 0 1.5 0V9A3.75 3.75 0 0 1 4.5 5.25v1.5Z" />
</svg> 