<svg xmlns="http://www.w3.org/2000/svg" viewBox="0 0 24 24" fill="currentColor" class="size-6">
  <path fill-rule="evenodd" d="M12 2.25c-5.385 0-9.75 4.365-9.75 9.75s4.365 9.75 9.75 9.75 9.75-4.365 9.75-9.75S17.385 2.25 12 2.25ZM12.75 6a.75.75 0 0 0-1.5 0v6a.75.75 0 0 0 1.5 0V6ZM15 9.75a.75.75 0 0 0-1.5 0v3a.75.75 0 0 0 1.5 0V9.75ZM9 9.75a.75.75 0 0 0-1.5 0v3a.75.75 0 0 0 1.5 0V9.75ZM6 12a.75.75 0 0 0-1.5 0v1.5a.75.75 0 0 0 1.5 0V12ZM18 12a.75.75 0 0 0-1.5 0v1.5a.75.75 0 0 0 1.5 0V12Z" clip-rule="evenodd" />
</svg> 