<svg xmlns="http://www.w3.org/2000/svg" viewBox="0 0 24 24" fill="currentColor" class="size-6">
  <path fill-rule="evenodd" d="M16.5 6a.75.75 0 0 1 .75.75v10.5a.75.75 0 0 1-1.5 0V6.75a.75.75 0 0 1 .75-.75Zm-9 0a.75.75 0 0 1 .75.75v10.5a.75.75 0 0 1-1.5 0V6.75a.75.75 0 0 1 .75-.75Zm9 3a.75.75 0 0 1 .75.75v7.5a.75.75 0 0 1-1.5 0v-7.5a.75.75 0 0 1 .75-.75Zm-9 3a.75.75 0 0 1 .75.75v4.5a.75.75 0 0 1-1.5 0v-4.5a.75.75 0 0 1 .75-.75ZM12 2.25c-5.385 0-9.75 4.365-9.75 9.75s4.365 9.75 9.75 9.75 9.75-4.365 9.75-9.75S17.385 2.25 12 2.25Z" clip-rule="evenodd" />
</svg> 