<svg xmlns="http://www.w3.org/2000/svg" viewBox="0 0 24 24" fill="currentColor" class="size-6">
  <path fill-rule="evenodd" d="M11.54 22.351A8.75 8.75 0 0 0 16.5 20.25h3.375c.621 0 1.125-.504 1.125-1.125V18a2.25 2.25 0 0 0-2.25-2.25h-2.25a.75.75 0 0 0-.75.75v.637l-2.091 1.171c-.27.152-.572.24-.88.24h-.11c-.308 0-.61-.088-.88-.24l-2.09-1.171V16.5a.75.75 0 0 0-.75-.75H7.5a2.25 2.25 0 0 0-2.25 2.25v1.125c0 .621.504 1.125 1.125 1.125h3.375A8.75 8.75 0 0 0 11.54 22.351ZM12 21a9 9 0 1 0 0-18 9 9 0 0 0 0 18Z" clip-rule="evenodd" />
</svg> 