<svg xmlns="http://www.w3.org/2000/svg" viewBox="0 0 24 24" fill="currentColor" class="size-6">
  <path fill-rule="evenodd" d="M1.5 4.5a3 3 0 0 1 3-3h1.372c.86 0 1.61.579 1.902 1.334l1.455 3.638a1.125 1.125 0 0 1-1.995 1.125L5.75 7.5a.75.75 0 0 0-.75.75v3c0 .168.028.332.083.487l1.455 4.366a6.75 6.75 0 0 0 6.662 4.417h.008c.93 0 1.85-.156 2.719-.464l4.168-1.743a1.125 1.125 0 0 0 .615-1.528l-1.455-3.638a1.125 1.125 0 0 0-1.995-1.125L18 8.25a.75.75 0 0 0-.75-.75h-3a.75.75 0 0 0-.75.75v3c0 .168-.028.332-.083.487l-1.455 4.366A5.265 5.265 0 0 1 7.25 18a.75.75 0 0 0-.75-.75H4.5a3 3 0 0 1-3-3V4.5Z" clip-rule="evenodd" />
</svg> 